<?xml version="1.0" encoding="utf-8"?>
<!-- Generator: Adobe Illustrator 16.0.3, SVG Export Plug-In . SVG Version: 6.00 Build 0)  -->
<!DOCTYPE svg PUBLIC "-//W3C//DTD SVG 1.1//EN" "http://www.w3.org/Graphics/SVG/1.1/DTD/svg11.dtd">
<svg version="1.1" id="Lager_1" xmlns="http://www.w3.org/2000/svg" xmlns:xlink="http://www.w3.org/1999/xlink" x="0px" y="0px"
	 width="438.222px" height="317.253px" viewBox="0 0 438.222 317.253" style="enable-background:new 0 0 438.222 317.253;"
	 xml:space="preserve">
<g>
	<path d="M300.297,130.313c0-4.997,0-130.313,0-130.313h-61.799v25.695h-27.232V0h-29.048v25.695h-27.3V0h-30.182
		c0,0,0,127.688,0,130.313s-1.313,15.563,6.938,34.688s23.13,30.012,32.125,35.833c12.75,8.25,48.666,16.563,48.666,16.563
		s36.023-8.313,48.834-16.563c9.007-5.801,23.846-16.692,32.061-35.833C300.596,148.139,300.297,131.882,300.297,130.313z
		 M245.253,124.021c0,34.989-17.98,50.054-48.596,50.054c-30.616,0-48.596-15.065-48.596-50.054V87.087
		c0-34.989,17.98-50.054,48.596-50.054c30.615,0,48.596,15.064,48.596,50.054V124.021z"/>
</g>
<path style="fill-rule:evenodd;clip-rule:evenodd;" d="M196.467,60.825c10.868,0,19.665,8.798,19.665,19.65v49.53
	c0,10.853-8.798,19.65-19.65,19.65c-10.882,0-19.68-8.798-19.68-19.65v-49.53c0-10.852,8.797-19.65,19.65-19.65H196.467z"/>
<g>
	<path d="M40.945,111.132c1.372-0.198,2.676,0.637,2.882,2.062c0.198,1.371-0.856,2.654-2.174,2.844
		c-1.372,0.198-2.594-0.811-2.784-2.129C38.671,112.537,39.574,111.33,40.945,111.132z M42.429,121.418
		c1.372-0.198,2.676,0.637,2.882,2.062c0.198,1.371-0.855,2.654-2.174,2.844c-1.372,0.198-2.594-0.811-2.784-2.129
		C40.154,122.823,41.057,121.616,42.429,121.418z M16.416,106.916c9.337-1.347,19.232,3.419,20.541,12.492
		s-6.837,16.44-16.174,17.787c-9.336,1.346-19.337-3.404-20.646-12.477C-1.171,115.645,7.08,108.262,16.416,106.916z
		 M19.863,131.188c10.919-1.575,16.93-4.326,15.88-11.606c-1.05-7.279-7.593-8.22-18.512-6.646
		c-10.867,1.567-16.931,4.326-15.88,11.605C2.4,131.822,8.997,132.755,19.863,131.188z"/>
	<path d="M5.528,152.894l1.163-0.387l1.295,3.894l31.454-10.466l-1.295-3.894l1.163-0.387l4.963,14.918
		c3.231,9.709-1.389,12.875-3.664,13.633c-6.625,2.204-9.824-3.191-11.81-7.81l-0.102,0.034c0.469,6.303-0.343,10.955-8.484,13.158
		c-2.478,0.656-4.652,1.717-4.788,2.998c-0.338,1.18,1.372,2.623,2.581,3.525l-0.769,0.871c-1.95-0.712-3.296-2.442-3.784-3.74
		c-1.245-3.574,0.003-6.236,2.162-7.684c0.826-0.556,4.821-2.222,7.738-3.586c2.242-1.026,5.883-2.744,3.763-9.116l-1.01-3.034
		l-16.485,5.485l1.329,3.995l-1.163,0.387L5.528,152.894z M27.268,155.434l0.909,2.731c1.851,5.563,3.467,8.9,10.395,6.595
		c4.905-1.632,5.716-4.261,4.101-9.116l-1.599-4.804L27.268,155.434z"/>
	<path d="M20.857,194.38l1.06-0.617l2.358,4.055l28.656-16.666l-2.358-4.055l1.06-0.616l13.584,23.357l-7.509,4.368l-0.589-1.014
		c5.027-3.972,4.333-7.391,1.895-11.583l-3.483-5.989l-13.269,7.717c2.707,4.653,3.61,6.101,8.869,3.905l0.589,1.014l-11.656,6.779
		l-0.589-1.014c4.769-3.144,4.242-5.427,1.636-10.014l-14.236,8.279l3.242,5.574c3.537,6.082,5.453,7.68,12.968,4.912l0.697,1.198
		l-8.964,4.412L20.857,194.38z"/>
	<path d="M43.523,230.573l0.921-0.809l2.708,3.083l24.904-21.877l-2.708-3.083l0.921-0.809l9.11,10.37
		c6.929,7.888,4.377,12.896,1.895,15.077c-3.963,3.482-8.936,1.537-12.185-1.354l-0.08,0.07c4.113,5.893,2.549,11.38,0.067,13.561
		c-3.043,2.673-8.879,4.75-16.477-3.898L43.523,230.573z M50.563,236.731l2.955,3.363c4.08,4.645,6.626,4.394,11.671-0.038
		c5.085-4.467,3.9-7.754-0.32-12.558l-1.653-1.882L50.563,236.731z M64.137,224.807l3.025,3.443
		c3.517,4.003,6.068,3.678,10.313-0.05c3.723-3.271,4.254-6.22,0.737-10.224l-2.744-3.123L64.137,224.807z"/>
	<path d="M72.311,261.434l0.748-0.972l3.252,2.503l20.219-26.269l-3.252-2.503l0.748-0.971l12.459,9.589
		c8.108,6.241,6.05,11.449,4.587,13.35c-4.258,5.533-9.928,2.85-14.158,0.133l-0.065,0.084c3.914,4.963,5.843,9.272,0.327,15.653
		c-1.687,1.93-2.896,4.025-2.292,5.163c0.38,1.167,2.604,1.407,4.111,1.479l-0.15,1.152c-2.015,0.5-4.098-0.181-5.229-0.984
		c-3.031-2.266-3.485-5.17-2.506-7.578c0.374-0.923,2.753-4.539,4.408-7.3c1.284-2.105,3.342-5.565-1.979-9.661l-2.534-1.95
		l-10.597,13.768l3.336,2.568l-0.748,0.971L72.311,261.434z M91.751,251.378l2.28,1.755c4.646,3.576,7.853,5.438,12.306-0.347
		c3.153-4.097,2.354-6.729-1.7-9.85l-4.012-3.088L91.751,251.378z"/>
	<path d="M116.895,272.221c3.913-8.583,13.27-14.333,21.61-10.531s10.137,14.637,6.224,23.22
		c-3.913,8.583-13.313,14.43-21.655,10.628C114.733,291.735,112.981,280.804,116.895,272.221z M139.179,282.438
		c4.576-10.038,5.509-16.583-1.183-19.633c-6.692-3.051-11.02,1.946-15.596,11.984c-4.554,9.99-5.51,16.583,1.183,19.633
		C130.275,297.473,134.625,292.428,139.179,282.438z"/>
	<path d="M186.527,278.243l-0.202,1.209l-4.1-0.685l-4.355,26.073c-0.202,1.209-0.204,7.044,6.156,8.106
		c7.885,1.317,9.788-3.93,10.903-10.606l3.486-20.869l-4.048-0.676l0.202-1.209l9.515,1.59l-0.202,1.209l-4.048-0.676l-3.758,22.499
		c-1.379,8.253-5.665,11.589-13.602,10.263c-6.781-1.133-10.521-5.594-9.537-11.481l4.188-25.074l-4.047-0.676l0.202-1.209
		L186.527,278.243z"/>
	<path d="M215.386,282.732l-4.153,0.177l-0.052-1.225l10.383-0.442l16.22,25.127l0.106-0.005l-1.046-24.546l-4.153,0.177
		l-0.052-1.225l9.851-0.42l0.052,1.225l-4.1,0.174l1.498,35.143l-1.385,0.059l-21.419-33.228l-0.107,0.005l1.366,32.054l4.1-0.175
		l0.052,1.225l-9.851,0.419l-0.052-1.225l4.153-0.177L215.386,282.732z"/>
	<path d="M270.694,310.71l-14.04,2.898l-0.248-1.201l4.488-0.926l-6.7-32.465l-4.489,0.927l-0.248-1.201l14.04-2.897l0.248,1.2
		l-4.489,0.926l6.7,32.465l4.489-0.926L270.694,310.71z"/>
	<path d="M269.544,274.773l12.595-4.813l0.438,1.145l-3.883,1.484l17.857,21.646l0.1-0.038l-1.479-27.905l-4.53,1.731l-0.438-1.146
		l9.458-3.615l0.438,1.145l-3.534,1.351l2.002,36.891l-1.245,0.476l-23.708-28.596l-3.634,1.389L269.544,274.773z"/>
	<path d="M323.346,291.083l-0.65-1.039l3.976-2.487l-17.582-28.103l-3.976,2.488l-0.65-1.04l22.907-14.331l4.607,7.365l-0.994,0.622
		c-4.132-4.896-7.527-4.092-11.638-1.52l-5.874,3.674l8.141,13.012c4.563-2.854,5.981-3.804,3.617-8.989l0.994-0.622l7.151,11.431
		l-0.994,0.622c-3.295-4.665-5.561-4.065-10.062-1.312l8.734,13.961l5.467-3.42c5.964-3.731,7.5-5.697,4.491-13.119l1.175-0.735
		l4.698,8.816L323.346,291.083z"/>
	<path d="M359.082,267.251l-0.841-0.892l2.985-2.816l-22.747-24.111l-2.985,2.816l-0.841-0.892l11.435-10.788
		c7.443-7.022,12.261-4.167,13.907-2.423c4.791,5.078,1.247,10.253-2.104,14l0.073,0.078c5.519-3.082,10.078-4.306,15.507,2.148
		c1.639,1.971,3.518,3.496,4.736,3.079c1.212-0.191,1.8-2.35,2.109-3.826l1.114,0.33c0.176,2.068-0.826,4.018-1.797,5.007
		c-2.716,2.635-5.656,2.625-7.878,1.279c-0.853-0.515-4.047-3.436-6.513-5.505c-1.876-1.6-4.968-4.179-9.852,0.429l-2.326,2.194
		l11.922,12.637l3.063-2.889l0.841,0.892L359.082,267.251z M352.222,246.468l2.093-1.975c4.264-4.022,6.609-6.895,1.6-12.206
		c-3.547-3.76-6.273-3.387-9.994,0.124l-3.683,3.474L352.222,246.468z"/>
	<path d="M390.282,235.85l-0.444,0.6l-7.372-5.449l0.602-0.814c5.109,1.161,9.941,0.986,13.014-3.171
		c2.724-3.686,3.075-8.861-0.697-11.649c-2.529-1.869-4.129-2.124-7.897,0.194c-1.772,1.142-8.868,6.169-9.771,6.496
		c-3.38,1.345-6.723,0.399-9.123-1.375c-1.757-1.299-3.073-3.067-3.783-5.514c-0.721-2.521-0.568-5.656,1.867-8.892
		c1.85-2.458,4.759-3.839,6.035-4.221l-0.039-2.547l0.444-0.6l6.686,4.942l-0.633,0.857c-4.499-1.247-8.909-1.217-11.728,2.598
		c-2.154,2.915-2.288,7.72,0.926,10.095c7.115,5.259,14.535-14.374,26.192-5.758c5.872,4.34,6.584,10.566,2.444,16.188
		c-2.112,2.869-4.19,4.325-7.247,4.784L390.282,235.85z"/>
	<path d="M416.915,194.398l-6.783,12.63l-1.08-0.58l2.168-4.038l-29.204-15.684l-2.168,4.038l-1.08-0.58l6.783-12.63l1.08,0.58
		l-2.168,4.038l29.204,15.684l2.169-4.038L416.915,194.398z"/>
	<path d="M424.88,176.308l-1.154-0.413l1.487-4.166l-31.219-11.146l-1.219,3.413c-1.703,4.769,1.682,6.543,6.311,9.271l-0.466,1.305
		l-9.49-4.011l9.229-25.849l9.812,3.108l-0.466,1.305c-4.965-1.15-9.321-0.838-11.185,4.382l-0.789,2.208l31.219,11.147l1.487-4.166
		l1.154,0.412L424.88,176.308z"/>
	<path d="M404.615,113.577l-0.757,5.227l-1.214-0.176l1.576-10.875l1.214,0.176l-0.612,4.223l16.354,11.748l15.151,2.195
		l0.681-4.698l1.214,0.176l-2.096,14.465l-1.214-0.176l0.673-4.646l-15.151-2.195l-19.162,7.626l-0.566,3.907l-1.214-0.176
		l2.065-14.254l1.214,0.176l-0.673,4.646l17.13-6.627L404.615,113.577z"/>
</g>
</svg>
